Coordinates
version=1
nRows=8
nColumns=40
inDegrees=yes

Units are S.I. units (second, meters, Newtons, ...)
Angles are in degrees.

endheader
time	pelvis_tilt	pelvis_list	pelvis_rotation	pelvis_tx	pelvis_ty	pelvis_tz	hip_flexion_r	hip_adduction_r	hip_rotation_r	knee_angle_r	knee_angle_r_beta	ankle_angle_r	subtalar_angle_r	mtp_angle_r	hip_flexion_l	hip_adduction_l	hip_rotation_l	knee_angle_l	knee_angle_l_beta	ankle_angle_l	subtalar_angle_l	mtp_angle_l	lumbar_extension	lumbar_bending	lumbar_rotation	arm_flex_r	arm_add_r	arm_rot_r	elbow_flex_r	pro_sup_r	wrist_flex_r	wrist_dev_r	arm_flex_l	arm_add_l	arm_rot_l	elbow_flex_l	pro_sup_l	wrist_flex_l	wrist_dev_l
     38.07000000	     -4.56689533	     -3.03738828	     -0.63074633	      1.06777821	      0.93018574	      0.43337799	     32.73193455	     -5.38179152	     -4.32593642	     73.07432125	     73.07432125	     -1.35630932	    -17.85222621	      3.97854990	     16.46062922	     -4.18110150	     -8.52367696	     22.53318907	     22.53318907	     12.66278172	    -14.54644095	      0.95873830	     -9.49448917	      5.54433259	      1.99473637	     14.22423947	    -13.55936257	    -10.51846131	     87.04468285	     44.94133675	      0.00000000	      0.00000000	      8.19078155	    -14.13561231	     10.36972689	     38.88543521	     45.39034583	      0.00000000	      0.00000000
     38.08121429	     -4.44496112	     -3.14309187	     -0.73763472	      1.06669209	      0.93107880	      0.43277699	     34.00646453	     -5.36130976	     -4.51965570	     71.78666796	     71.78666796	     -1.10835327	    -17.85744902	      3.73169065	     15.36606598	     -4.21963409	     -8.68299485	     21.88205022	     21.88205022	     12.92920311	    -14.22522871	      0.66345552	     -9.71072486	      5.80056156	      2.17076237	     12.22310172	    -13.34799812	    -11.29709300	     82.78628173	     45.10741477	      0.00000000	      0.00000000	     10.22595612	    -14.56315191	     10.19588179	     40.70986892	     45.46715155	      0.00000000	      0.00000000
     38.09242857	     -4.28450880	     -3.25304212	     -0.85141794	      1.06570186	      0.93193341	      0.43218451	     35.09056202	     -5.33867992	     -4.76282628	     70.27417162	     70.27417162	     -0.90093021	    -17.83709354	      3.74112687	     14.21303913	     -4.25599656	     -8.89249936	     21.19282138	     21.19282138	     13.16763549	    -13.96635997	      0.32033554	     -9.93284665	      6.04966638	      2.16423191	     10.73219171	    -13.07709066	    -11.93985503	     77.74043656	     45.29433608	      0.00000000	      0.00000000	     12.10847375	    -15.01042406	     10.00286812	     42.65786510	     45.55152046	      0.00000000	      0.00000000
     38.10364286	     -4.09951627	     -3.38018608	     -0.99561107	      1.06477248	      0.93277097	      0.43172186	     35.97823099	     -5.22320846	     -4.96124552	     68.46924447	     68.46924447	     -0.71028477	    -17.78850338	      3.96877912	     13.00729472	     -4.30809645	     -9.07465003	     20.45829418	     20.45829418	     13.46777178	    -13.67712821	      0.22960251	    -10.26662914	      6.32813525	      2.72836272	      8.66417178	    -13.43928165	    -12.10197830	     74.14920491	     45.41079681	      0.00000000	      0.00000000	     14.32657391	    -15.15328743	      9.65151389	     44.33190327	     45.63385257	      0.00000000	      0.00000000
     38.11485714	     -4.00139988	     -3.50067779	     -1.07764533	      1.06391494	      0.93333418	      0.43132694	     36.79108726	     -5.12562986	     -5.20806825	     66.39513870	     66.39513870	     -0.44151495	    -17.68387876	      4.38018463	     11.96185162	     -4.36404869	     -9.25013972	     19.80901285	     19.80901285	     13.61946403	    -13.41764678	     -0.25112418	    -10.36910400	      6.54645515	      2.18369586	      8.55326394	    -12.58078371	    -13.20353854	     67.11475668	     45.67599636	      0.00000000	      0.00000000	     15.76714704	    -15.86040965	      9.27688742	     46.35090739	     45.73281442	      0.00000000	      0.00000000
     38.12607143	     -3.90641959	     -3.67428289	     -1.13363882	      1.06316981	      0.93381621	      0.43100336	     37.38457934	     -5.01494187	     -5.61479323	     63.92022853	     63.92022853	     -0.30264597	    -17.52266104	      4.66894092	     10.92317660	     -4.46120402	     -9.31976942	     19.16984727	     19.16984727	     13.90719006	    -13.16975620	     -0.30100366	    -10.62459381	      6.91922303	      2.48498981	      6.54477398	    -12.76667863	    -13.18580226	     64.57894204	     45.75033070	      0.00000000	      0.00000000	     17.75337628	    -16.05276086	      8.85942906	     47.81590529	     45.81059507	      0.00000000	      0.00000000
     38.13728571	     -3.79419299	     -3.72971564	     -1.27858342	      1.06252390	      0.93416889	      0.43087018	     37.83554628	     -4.90841392	     -5.79511036	     61.13791799	     61.13791799	     -0.30878373	    -17.27550178	      4.55810321	      9.80340510	     -4.45089461	     -9.55321734	     18.43451674	     18.43451674	     14.01839646	    -12.90397989	     -0.87597011	    -10.76276348	      7.01837715	      2.24927435	      7.07783550	    -12.22809851	    -14.41058041	     56.09704114	     46.06793695	      0.00000000	      0.00000000	     19.02612495	    -16.57181119	      8.10543443	     50.55157003	     45.94902100	      0.00000000	      0.00000000
     38.14850000	     -3.88724162	     -3.79951601	     -1.34980711	      1.06181820	      0.93391661	      0.43081470	     38.34376722	     -4.82174089	     -6.08129292	     58.05963826	     58.05963826	     -0.07946435	    -16.71587343	      4.78874968	      9.11584363	     -4.47620213	     -9.61781712	     18.07594673	     18.07594673	     14.35714731	    -12.77107159	     -0.97849446	    -10.77310747	      7.27410446	      2.01374540	      5.28702953	    -12.17417430	    -14.38508398	     54.72573129	     46.10352100	      0.00000000	      0.00000000	     20.75894800	    -17.20162147	      7.66228790	     51.56352722	     46.01561750	      0.00000000	      0.00000000
